<svg width="30" height="30" viewBox="0 0 30 30" fill="none" xmlns="http://www.w3.org/2000/svg">
<path d="M12.5 10V8.75C12.5 7.57149 12.5 6.98224 12.8661 6.61611C13.2323 6.25 13.8215 6.25 15 6.25H21.25C22.4285 6.25 23.0177 6.25 23.3839 6.61611C23.75 6.98224 23.75 7.57149 23.75 8.75V15C23.75 16.1785 23.75 16.7677 23.3839 17.1339C23.0177 17.5 22.4285 17.5 21.25 17.5H20M8.75 23.75H15C16.1785 23.75 16.7677 23.75 17.1339 23.3839C17.5 23.0177 17.5 22.4285 17.5 21.25V15C17.5 13.8215 17.5 13.2323 17.1339 12.8661C16.7677 12.5 16.1785 12.5 15 12.5H8.75C7.57149 12.5 6.98224 12.5 6.61611 12.8661C6.25 13.2323 6.25 13.8215 6.25 15V21.25C6.25 22.4285 6.25 23.0177 6.61611 23.3839C6.98224 23.75 7.57149 23.75 8.75 23.75Z" stroke="white" stroke-linecap="round" stroke-linejoin="round"/>
</svg>
