<svg width="48" height="48" viewBox="0 0 48 48" fill="none" xmlns="http://www.w3.org/2000/svg">
<rect width="48" height="48" rx="24" fill="white"/>
<path d="M41.092 4.01298C41.2613 4.12418 41.428 4.24073 41.5905 4.36364C41.7227 4.46328 41.8549 4.56292 41.9911 4.66558C42.6379 5.3328 42.8576 5.97776 42.8919 6.93038C42.8935 7.1512 42.8941 7.372 42.8943 7.59281C42.8952 7.7757 42.8952 7.7757 42.8963 7.96229C42.8981 8.37129 42.8991 8.78028 42.8999 9.18928C42.9009 9.48242 42.9021 9.77556 42.9035 10.0687C42.9072 11.0321 42.9093 11.9954 42.9113 12.9588C42.9121 13.2909 42.9129 13.6229 42.9136 13.9549C42.9167 15.3369 42.9193 16.7189 42.9209 18.1008C42.9233 20.0787 42.928 22.0565 42.9361 24.0344C42.9417 25.4264 42.9444 26.8183 42.9452 28.2103C42.9457 29.0409 42.9475 29.8715 42.952 30.7021C42.9564 31.4845 42.9572 32.2669 42.9556 33.0495C42.9555 33.3353 42.9567 33.6212 42.9592 33.9071C42.9795 36.3475 42.6148 38.2433 41.0213 40.0653C39.4828 41.6797 37.8588 41.9888 35.8153 41.9544C33.3041 41.8609 31.6687 39.9147 30.0535 38.026C29.8075 37.7299 29.5676 37.4307 29.3317 37.1249C28.9197 36.6077 28.4885 36.1105 28.0593 35.6104C27.454 34.9047 26.8573 34.1947 26.2817 33.4596C26.0421 33.1665 25.7889 32.894 25.5312 32.6201C24.9664 32.0021 24.6717 31.6039 24.5731 30.7085C24.5855 29.6964 25.0832 28.9725 25.5757 28.1493C25.6624 27.9991 25.7492 27.8488 25.8385 27.694C26.1013 27.24 26.368 26.7888 26.6351 26.3376C26.8235 26.0144 27.0117 25.6909 27.1997 25.3673C27.3243 25.1532 27.3243 25.1532 27.4512 24.9347C27.5109 24.832 27.5705 24.7292 27.632 24.6233C28.1872 24.9025 28.5391 25.2885 28.9407 25.7824C29.0095 25.8657 29.0784 25.9489 29.1493 26.0348C29.5857 26.5669 30.0013 27.1136 30.4095 27.6721C30.9789 28.4471 31.6035 29.1396 32.2511 29.8344C32.7325 30.3596 33.1751 30.9135 33.6143 31.4805C33.7948 31.7115 33.9757 31.942 34.1573 32.1721C34.2375 32.2747 34.3177 32.3773 34.4004 32.4832C34.7327 32.8679 34.8907 32.8827 35.3857 32.9221C35.8697 32.9297 35.8697 32.9297 36.1352 32.7124C36.4131 32.2672 36.3736 31.9033 36.3735 31.3679C36.374 31.2608 36.3745 31.1537 36.3751 31.0435C36.3764 30.6837 36.3747 30.3243 36.3731 29.9645C36.3733 29.7071 36.3739 29.4495 36.3747 29.192C36.3759 28.6368 36.3757 28.0817 36.3747 27.5267C36.3729 26.6484 36.3747 25.7701 36.3769 24.8919C36.3821 22.7097 36.3831 20.5276 36.3827 18.3455C36.3824 16.6509 36.3835 14.9564 36.3884 13.2619C36.3908 12.3894 36.3905 11.517 36.3883 10.6445C36.3875 10.1005 36.3889 9.55666 36.3911 9.01274C36.3916 8.76121 36.3912 8.50966 36.3897 8.25813C36.3765 5.8946 36.3765 5.8946 37.0327 4.83116C37.3225 4.51034 37.3225 4.51034 37.6113 4.29545C37.7548 4.18486 37.7548 4.18486 37.9012 4.07204C38.7947 3.49189 40.1692 3.52069 41.092 4.01298Z" fill="#C3A2C3"/>
<path d="M11.1899 8.65909C11.3162 8.65749 11.4425 8.65591 11.5726 8.65427C13.3723 8.6804 15.1037 9.52441 16.3799 10.9091C16.5357 11.0999 16.6897 11.2926 16.8421 11.4868C17.3561 12.1344 17.8887 12.7602 18.4273 13.3831C19.0255 14.0773 19.6199 14.7735 20.1988 15.4871C20.7384 16.1496 21.3087 16.7721 21.8852 17.3961C22.2679 17.8197 22.6283 18.2571 22.9779 18.7135C23.2163 19.0219 23.2163 19.0219 23.5043 19.3125C23.5973 19.4129 23.6904 19.5133 23.7864 19.6169C23.8716 19.7033 23.9567 19.7896 24.0445 19.8787C24.3412 20.5471 24.2623 21.1172 24.0712 21.8181C23.7053 22.5743 23.2671 23.2636 22.816 23.9611C22.6977 24.1485 22.5796 24.3363 22.4619 24.5241C22.2445 24.8701 22.0256 25.2145 21.8052 25.5583C21.51 26.0219 21.2227 26.4899 20.9377 26.9611C19.9917 26.1241 19.2119 25.1641 18.4156 24.1613C17.6852 23.2416 16.9295 22.3489 16.1728 21.4553C15.8284 21.048 15.4852 20.6395 15.1424 20.2305C15.0156 20.0792 14.8887 19.928 14.758 19.7721C14.2905 19.2103 13.8297 18.6421 13.3709 18.0719C12.9726 17.616 12.75 17.4616 12.1691 17.4059C11.9268 17.43 11.9268 17.43 11.6795 17.4545C11.3482 17.9983 11.359 18.2092 11.3588 18.8515C11.3581 19.0457 11.3573 19.2399 11.3565 19.44C11.3571 19.6557 11.3577 19.8713 11.3583 20.0869C11.3579 20.3137 11.3574 20.5407 11.3567 20.7675C11.3556 21.2563 11.3553 21.7451 11.3556 22.2337C11.356 23.0073 11.3539 23.7808 11.3514 24.5544C11.3447 26.754 11.3413 28.9537 11.3404 31.1535C11.3399 32.3681 11.3373 33.5828 11.3326 34.7975C11.3297 35.5656 11.3293 36.3339 11.3309 37.102C11.3313 37.5813 11.3293 38.0604 11.3266 38.5397C11.3259 38.7611 11.3261 38.9824 11.3273 39.2039C11.34 41.6193 11.34 41.6193 10.4864 42.6193C9.68608 43.4016 8.96762 43.7231 7.90783 43.6796C6.9255 43.5613 6.31892 43.1571 5.63223 42.3915C5.09258 41.6216 4.9317 40.9801 4.9309 40.0163C4.93023 39.9064 4.92956 39.7965 4.92888 39.6832C4.92719 39.3168 4.92852 38.9505 4.92987 38.584C4.9293 38.3205 4.92854 38.0571 4.9276 37.7936C4.92566 37.0791 4.9264 36.3645 4.92776 35.65C4.92884 34.9013 4.92784 34.1525 4.92718 33.4037C4.92639 32.146 4.92742 30.8881 4.92946 29.6304C4.93178 28.1781 4.93103 26.726 4.92867 25.2739C4.92674 24.0256 4.92646 22.7775 4.92758 21.5292C4.92824 20.7843 4.92834 20.0395 4.92692 19.2947C4.92568 18.5937 4.92655 17.8929 4.92902 17.192C4.92958 16.9356 4.92942 16.6791 4.92847 16.4225C4.92122 14.2564 5.2486 12.3515 6.61424 10.6705C7.11662 10.1538 7.67459 9.74389 8.26112 9.35065C8.36138 9.28215 8.46162 9.21364 8.56491 9.14307C9.40835 8.67501 10.2629 8.66817 11.1899 8.65909Z" fill="#C3A2C3"/>
<path d="M12.2047 17.2597C12.3605 17.2725 12.5161 17.2855 12.6766 17.2987C12.6766 17.3501 12.6766 17.4016 12.6766 17.4545C12.3945 17.4545 12.1125 17.4545 11.822 17.4545C11.5279 17.9861 11.5003 18.4003 11.4974 19.0167C11.4958 19.2089 11.4943 19.4013 11.4926 19.5995C11.4923 19.8121 11.492 20.0247 11.4917 20.2373C11.4904 20.4616 11.4889 20.6859 11.4873 20.9101C11.4835 21.5187 11.4813 22.1272 11.4795 22.7357C11.4772 23.3717 11.4734 24.0077 11.4698 24.6439C11.4631 25.8481 11.4579 27.0524 11.4531 28.2567C11.4477 29.6279 11.4407 30.9989 11.4335 32.37C11.4188 35.1904 11.4061 38.0108 11.3947 40.8312C11.3477 40.8312 11.3007 40.8312 11.2522 40.8312C11.2423 37.8549 11.2347 34.8788 11.2301 31.9025C11.2279 30.5207 11.2249 29.1388 11.22 27.7569C11.2157 26.5527 11.213 25.3484 11.212 24.144C11.2115 23.5063 11.2102 22.8684 11.2071 22.2307C11.2041 21.6305 11.2033 21.0304 11.2039 20.4301C11.2038 20.2097 11.2029 19.9893 11.2013 19.7689C11.1992 19.4683 11.1999 19.1675 11.2008 18.8668C11.2005 18.6984 11.2001 18.53 11.1997 18.3565C11.2935 17.5807 11.4874 17.3129 12.2047 17.2597Z" fill="#C3A2C3"/>
<path d="M12.2047 17.2597C12.3604 17.2725 12.5161 17.2855 12.6765 17.2987C12.6765 17.3501 12.6765 17.4016 12.6765 17.4545C12.3945 17.4545 12.1125 17.4545 11.822 17.4545C11.4855 18.0307 11.4881 18.6013 11.4781 19.2637C11.4753 19.3771 11.4726 19.4904 11.4697 19.6071C11.4613 19.9675 11.4546 20.3279 11.4481 20.6883C11.4426 20.9332 11.4371 21.1781 11.4314 21.4231C11.4177 22.0223 11.4057 22.6215 11.3947 23.2208C11.3477 23.2208 11.3007 23.2208 11.2522 23.2208C11.2416 22.4776 11.2339 21.7344 11.2287 20.9912C11.2266 20.7384 11.2237 20.4857 11.22 20.2329C11.2148 19.8693 11.2124 19.5057 11.2105 19.142C11.2083 19.0293 11.2061 18.9167 11.2038 18.8005C11.2037 18.3157 11.2294 17.97 11.4357 17.5365C11.6795 17.2987 11.6795 17.2987 12.2047 17.2597Z" fill="#C3A2C3"/>
<path d="M7.54896 9.81818C7.64296 9.86961 7.73697 9.92104 7.83383 9.97402C7.3638 10.4883 6.89376 11.0026 6.40949 11.5325C6.31548 11.481 6.22148 11.4296 6.12463 11.3766C6.56315 10.7734 6.97933 10.2812 7.54896 9.81818Z" fill="#C3A2C3"/>
<path d="M12.1959 17.2792C12.4338 17.2888 12.4338 17.2888 12.6766 17.2987C12.6766 17.3501 12.6766 17.4016 12.6766 17.4545C12.3945 17.4545 12.1125 17.4545 11.822 17.4545C11.7808 17.5477 11.7397 17.6409 11.6973 17.7371C11.5371 18.0779 11.5371 18.0779 11.2522 18.5455C11.3996 17.3092 11.3996 17.3092 12.1959 17.2792Z" fill="#C3A2C3"/>
</svg>
